<svg width="30" height="30" viewBox="0 0 30 30" fill="none" xmlns="http://www.w3.org/2000/svg">
<path fill-rule="evenodd" clip-rule="evenodd" d="M22.071 7.92891C21.6805 7.53839 21.0474 7.53839 20.6569 7.92891L15 13.5858L9.34314 7.92891C8.95264 7.53839 8.31946 7.53839 7.92896 7.92891C7.53842 8.31943 7.53842 8.95259 7.92896 9.34312L13.5858 15L7.92892 20.6568C7.53839 21.0473 7.53839 21.6805 7.92892 22.071C8.31946 22.4616 8.95261 22.4616 9.34314 22.071L15 16.4142L20.6569 22.071C21.0474 22.4616 21.6805 22.4616 22.0711 22.071C22.4616 21.6805 22.4616 21.0473 22.0711 20.6568L16.4142 15L22.071 9.34312C22.4616 8.95259 22.4616 8.31943 22.071 7.92891Z" fill="#2B2B2B"/>
</svg>
